<svg width="939" height="225" viewBox="0 0 939 225" fill="none" xmlns="http://www.w3.org/2000/svg">
<path d="M797.986 191.706C797.986 190.033 796.864 188.917 795.181 188.917H746.382C744.699 188.917 743.577 190.033 743.577 191.706C743.577 193.38 744.699 194.496 746.382 194.496H795.181C796.864 194.496 797.986 193.101 797.986 191.706Z" fill="white"/>
<path d="M757.601 202.864H751.992C750.309 202.864 749.187 203.979 749.187 205.653C749.187 207.326 750.309 208.442 751.992 208.442H757.601C759.283 208.442 760.405 207.326 760.405 205.653C760.405 203.979 759.283 202.864 757.601 202.864Z" fill="white"/>
<path d="M770.782 177.76C770.782 176.087 769.66 174.971 767.977 174.971H740.773C739.09 174.971 737.968 176.087 737.968 177.76C737.968 179.434 739.09 180.55 740.773 180.55H767.977C769.66 180.55 770.782 179.155 770.782 177.76Z" fill="white"/>
<path d="M910.169 182.502C909.328 180.828 907.645 179.434 905.962 178.597L884.647 170.508L875.953 167.44C873.429 166.324 871.185 164.651 869.783 162.419L862.491 150.426C863.893 150.147 864.735 149.031 864.735 147.636C864.735 145.963 863.613 144.847 861.93 144.847H859.126L855.76 139.269C857.162 138.99 858.004 137.874 858.004 136.479C858.004 134.806 856.882 133.69 855.199 133.69H852.395L849.59 129.227C850.712 128.948 851.553 127.833 851.553 126.717C851.553 125.043 850.431 123.928 848.749 123.928H846.225L842.579 118.07C842.579 118.07 842.579 117.791 842.298 117.791C838.933 113.886 834.445 111.934 829.678 112.492C825.471 113.05 822.105 115.56 820.703 118.628C820.422 119.465 820.422 120.302 820.983 121.138L844.261 160.746C844.542 161.304 845.103 161.862 845.664 161.862L874.27 172.74H874.551L882.965 175.808L903.999 183.897C904.56 184.176 905.121 184.455 905.401 185.291C906.523 187.523 906.523 189.754 905.121 191.986H859.406C856.602 191.986 853.797 191.149 851.553 189.475L773.305 131.738C773.305 131.738 774.427 131.18 775.83 129.227C777.232 127.275 777.793 124.764 777.793 122.254L775.269 98.8244L778.634 93.5248C779.476 92.4091 781.158 92.1301 782.28 92.9669C783.122 93.8037 786.487 96.5929 794.62 109.702C798.827 115.839 805.558 120.302 813.131 121.417C814.533 121.696 816.216 120.581 816.496 119.186C816.776 117.791 815.655 116.118 814.252 115.839C808.363 114.723 802.754 111.376 799.388 106.355C789.572 91.2934 786.767 89.062 785.646 88.2252C782 85.7148 776.951 86.5516 774.147 90.1777L757.039 117.233C755.917 118.907 755.637 120.859 755.917 122.812C754.234 123.37 752.552 124.207 751.71 125.88L747.223 132.853C744.699 136.479 745.821 141.5 749.467 144.01C751.991 145.963 757.319 149.31 765.172 154.331C765.733 154.609 766.294 154.888 766.574 154.888C767.416 154.888 768.257 154.331 768.818 153.494C769.66 152.099 769.379 150.426 767.977 149.589C760.404 144.568 755.076 141.221 752.552 139.269C751.43 138.432 751.149 137.037 751.991 135.643L756.198 129.227C757.039 128.112 758.722 127.833 759.843 128.669L847.907 193.938C851.273 196.448 855.199 197.564 859.126 197.564H897.829C891.939 200.353 883.806 202.864 876.794 202.864H866.978H858.845C854.077 202.864 849.31 201.469 845.383 198.959C829.117 188.638 798.827 169.393 776.671 155.167C775.269 154.331 773.586 154.609 772.745 156.004C771.903 157.399 772.184 159.072 773.586 159.909C795.181 173.855 824.629 192.543 841.176 203.143H768.818C767.135 203.143 766.014 204.258 766.014 205.932C766.014 207.605 767.135 208.721 768.818 208.721H858.845H866.978H876.514C888.013 208.721 904.56 202.585 908.767 196.727C912.413 191.707 912.693 186.965 910.169 182.502ZM848.188 157.399L826.312 120.302C827.153 119.465 828.556 118.628 830.238 118.349C831.921 118.07 835.006 118.349 837.811 121.417L839.494 124.207H836.969C835.287 124.207 834.165 125.322 834.165 126.996C834.165 128.669 835.287 129.785 836.969 129.785H842.859L845.664 134.248H843.42C841.737 134.248 840.615 135.364 840.615 137.037C840.615 138.711 841.737 139.826 843.42 139.826H849.029L852.395 145.126H850.151C848.468 145.126 847.346 146.242 847.346 147.915C847.346 149.589 848.468 150.705 850.151 150.705H855.76L863.613 162.977L848.188 157.399ZM761.807 120.302L770.501 106.634L772.184 122.812C772.184 123.928 771.903 125.043 771.342 125.88C770.781 126.717 769.66 128.948 767.135 126.996C767.135 126.996 765.733 126.159 763.209 124.207C761.526 122.812 761.246 121.417 761.807 120.302Z" fill="white"/>
<path d="M34.3477 186V114.906H59.25C67.8763 114.906 74.4193 116.566 78.8789 119.887C83.3385 123.174 85.5684 128.008 85.5684 134.389C85.5684 137.872 84.6732 140.948 82.8828 143.617C81.0924 146.254 78.6022 148.191 75.4121 149.428C79.0579 150.339 81.9225 152.178 84.0059 154.945C86.1217 157.712 87.1797 161.098 87.1797 165.102C87.1797 171.938 84.9987 177.113 80.6367 180.629C76.2747 184.145 70.0573 185.935 61.9844 186H34.3477ZM48.9961 155.043V174.232H61.5449C64.9954 174.232 67.681 173.419 69.6016 171.791C71.5547 170.131 72.5312 167.852 72.5312 164.955C72.5312 158.445 69.1621 155.141 62.4238 155.043H48.9961ZM48.9961 144.691H59.8359C67.2253 144.561 70.9199 141.615 70.9199 135.854C70.9199 132.631 69.9759 130.32 68.0879 128.92C66.2324 127.488 63.2865 126.771 59.25 126.771H48.9961V144.691ZM140.988 155.189H112.863V174.232H145.871V186H98.2148V114.906H145.773V126.771H112.863V143.715H140.988V155.189ZM194.602 171.352H168.918L164.035 186H148.459L174.924 114.906H188.498L215.109 186H199.533L194.602 171.352ZM172.873 159.486H190.646L181.711 132.875L172.873 159.486ZM274.68 114.906V161.732C274.68 169.512 272.238 175.665 267.355 180.189C262.505 184.714 255.865 186.977 247.434 186.977C239.133 186.977 232.541 184.779 227.658 180.385C222.775 175.99 220.285 169.952 220.188 162.27V114.906H234.836V161.83C234.836 166.485 235.943 169.887 238.156 172.035C240.402 174.151 243.495 175.209 247.434 175.209C255.669 175.209 259.852 170.88 259.982 162.221V114.906H274.68ZM340.207 126.771H318.43V186H303.781V126.771H282.297V114.906H340.207V126.771ZM373.898 146.938L388.693 114.906H404.709L381.369 160.219V186H366.477V160.219L343.137 114.906H359.201L373.898 146.938ZM447.287 167.348C447.287 164.581 446.311 162.465 444.357 161C442.404 159.503 438.889 157.94 433.811 156.312C428.732 154.652 424.712 153.025 421.75 151.43C413.677 147.068 409.641 141.192 409.641 133.803C409.641 129.962 410.715 126.544 412.863 123.549C415.044 120.521 418.153 118.161 422.189 116.469C426.258 114.776 430.816 113.93 435.861 113.93C440.939 113.93 445.464 114.857 449.436 116.713C453.407 118.536 456.483 121.124 458.664 124.477C460.878 127.829 461.984 131.638 461.984 135.902H447.336C447.336 132.647 446.311 130.124 444.26 128.334C442.209 126.511 439.328 125.6 435.617 125.6C432.036 125.6 429.253 126.365 427.268 127.895C425.282 129.392 424.289 131.378 424.289 133.852C424.289 136.163 425.445 138.1 427.756 139.662C430.1 141.225 433.534 142.689 438.059 144.057C446.392 146.563 452.463 149.672 456.271 153.383C460.08 157.094 461.984 161.716 461.984 167.25C461.984 173.402 459.657 178.236 455.002 181.752C450.347 185.235 444.081 186.977 436.203 186.977C430.734 186.977 425.754 185.984 421.262 183.998C416.77 181.98 413.335 179.229 410.959 175.746C408.615 172.263 407.443 168.227 407.443 163.637H422.141C422.141 171.482 426.828 175.404 436.203 175.404C439.686 175.404 442.404 174.704 444.357 173.305C446.311 171.872 447.287 169.887 447.287 167.348ZM529.807 186H515.158V155.531H486.594V186H471.945V114.906H486.594V143.715H515.158V114.906H529.807V186ZM601.047 152.064C601.047 159.063 599.81 165.199 597.336 170.473C594.862 175.746 591.314 179.815 586.691 182.68C582.102 185.544 576.828 186.977 570.871 186.977C564.979 186.977 559.722 185.561 555.1 182.729C550.477 179.896 546.896 175.86 544.357 170.619C541.818 165.346 540.533 159.291 540.5 152.455V148.939C540.5 141.941 541.753 135.788 544.26 130.482C546.799 125.144 550.363 121.059 554.953 118.227C559.576 115.362 564.849 113.93 570.773 113.93C576.698 113.93 581.955 115.362 586.545 118.227C591.167 121.059 594.732 125.144 597.238 130.482C599.777 135.788 601.047 141.924 601.047 148.891V152.064ZM586.203 148.842C586.203 141.387 584.868 135.723 582.199 131.85C579.53 127.976 575.721 126.039 570.773 126.039C565.858 126.039 562.066 127.96 559.396 131.801C556.727 135.609 555.376 141.208 555.344 148.598V152.064C555.344 159.324 556.678 164.955 559.348 168.959C562.017 172.963 565.858 174.965 570.871 174.965C575.786 174.965 579.562 173.044 582.199 169.203C584.836 165.329 586.171 159.698 586.203 152.309V148.842ZM654.465 155.189H626.34V174.232H659.348V186H611.691V114.906H659.25V126.771H626.34V143.715H654.465V155.189ZM704.807 167.348C704.807 164.581 703.83 162.465 701.877 161C699.924 159.503 696.408 157.94 691.33 156.312C686.252 154.652 682.232 153.025 679.27 151.43C671.197 147.068 667.16 141.192 667.16 133.803C667.16 129.962 668.234 126.544 670.383 123.549C672.564 120.521 675.673 118.161 679.709 116.469C683.778 114.776 688.335 113.93 693.381 113.93C698.459 113.93 702.984 114.857 706.955 116.713C710.926 118.536 714.003 121.124 716.184 124.477C718.397 127.829 719.504 131.638 719.504 135.902H704.855C704.855 132.647 703.83 130.124 701.779 128.334C699.729 126.511 696.848 125.6 693.137 125.6C689.556 125.6 686.773 126.365 684.787 127.895C682.801 129.392 681.809 131.378 681.809 133.852C681.809 136.163 682.964 138.1 685.275 139.662C687.619 141.225 691.053 142.689 695.578 144.057C703.911 146.563 709.982 149.672 713.791 153.383C717.6 157.094 719.504 161.716 719.504 167.25C719.504 173.402 717.176 178.236 712.521 181.752C707.867 185.235 701.6 186.977 693.723 186.977C688.254 186.977 683.273 185.984 678.781 183.998C674.289 181.98 670.855 179.229 668.479 175.746C666.135 172.263 664.963 168.227 664.963 163.637H679.66C679.66 171.482 684.348 175.404 693.723 175.404C697.206 175.404 699.924 174.704 701.877 173.305C703.83 171.872 704.807 169.887 704.807 167.348Z" fill="white"/>
</svg>
